<?xml version="1.0" standalone="no"?>
<!DOCTYPE svg PUBLIC "-//W3C//DTD SVG 20010904//EN"
 "http://www.w3.org/TR/2001/REC-SVG-20010904/DTD/svg10.dtd">
<svg version="1.0" xmlns="http://www.w3.org/2000/svg"
 width="1024.000000pt" height="1024.000000pt" viewBox="0 0 1024.000000 1024.000000"
 preserveAspectRatio="xMidYMid meet">
<metadata>
Created by potrace 1.14, written by Peter Selinger 2001-2017
</metadata>
<g transform="translate(0.000000,1024.000000) scale(0.100000,-0.100000)"
fill="#000000" stroke="none">
<path d="M2150 5125 l0 -4205 600 0 600 0 0 4205 0 4205 -600 0 -600 0 0
-4205z"/>
<path d="M6383 9273 c-21 -32 -40 -60 -43 -63 -3 -3 -66 -95 -140 -205 -74
-110 -185 -274 -246 -365 -62 -91 -190 -280 -286 -420 -95 -140 -223 -329
-285 -420 -61 -91 -154 -228 -207 -305 -52 -77 -152 -225 -223 -330 -71 -104
-201 -296 -288 -425 -88 -129 -205 -302 -262 -385 -56 -82 -159 -235 -230
-340 -171 -251 -409 -602 -505 -744 -48 -70 -78 -125 -78 -140 0 -24 27 -64
271 -406 23 -33 135 -190 248 -350 113 -159 209 -294 214 -300 8 -10 94 -132
119 -168 7 -11 40 -57 73 -103 33 -46 98 -138 145 -204 47 -66 121 -171 166
-233 44 -61 136 -191 204 -287 68 -96 140 -197 160 -225 20 -27 61 -85 91
-128 30 -43 65 -93 79 -112 14 -18 31 -41 38 -51 17 -25 478 -674 494 -696 7
-10 39 -55 71 -100 186 -264 307 -434 314 -443 5 -5 35 -48 68 -95 33 -47 69
-97 80 -112 11 -16 47 -66 79 -113 l59 -85 764 0 764 0 -43 57 c-24 32 -47 62
-51 68 -4 5 -63 84 -130 175 -253 342 -383 518 -953 1285 -90 121 -267 360
-394 530 -126 171 -304 409 -393 530 -318 428 -426 573 -646 870 -122 165
-232 312 -243 328 -104 137 -288 388 -288 392 0 3 64 99 143 213 172 248 525
760 616 892 35 52 85 124 110 160 24 36 125 182 224 325 99 143 203 294 232
335 29 41 72 104 96 140 24 36 46 67 49 70 3 3 23 32 45 65 22 32 128 186 235
342 107 155 242 351 300 435 58 83 138 200 178 258 40 58 107 155 148 215 41
61 94 137 118 170 23 33 79 114 124 180 46 66 121 175 167 243 47 67 85 124
85 127 0 3 -315 5 -700 5 l-700 0 -37 -57z"/>
</g>
</svg>
