<svg width="133" height="40" viewBox="0 0 133 40" fill="none" xmlns="http://www.w3.org/2000/svg">
<path d="M131.21 35.0069C131.21 35.5065 131.113 36.0012 130.924 36.4627C130.735 36.9242 130.459 37.3434 130.11 37.6965C129.762 38.0496 129.348 38.3295 128.893 38.5203C128.437 38.7111 127.949 38.8091 127.457 38.8086H4.62998C3.63446 38.8096 2.67929 38.4097 1.97453 37.6968C1.26977 36.9839 0.873124 36.0163 0.871826 35.0069V4.69014C0.873123 3.68029 1.26961 2.71222 1.97423 1.99852C2.67885 1.28482 3.63401 0.883807 4.62998 0.883545H127.456C127.949 0.883545 128.437 0.982013 128.892 1.17332C129.348 1.36464 129.761 1.64504 130.11 1.99853C130.459 2.35202 130.735 2.77166 130.924 3.23349C131.112 3.69533 131.209 4.1903 131.209 4.69014L131.21 35.0069Z" fill="white"/>
<path d="M127.456 39.6974H4.62941C3.40305 39.6972 2.22688 39.2037 1.35897 38.3251C0.491072 37.4466 0.00233343 36.2549 0 35.0114L0 4.69563C0.00181422 3.45155 0.49023 2.259 1.3581 1.37958C2.22598 0.50016 3.40244 0.00568872 4.62941 0.00463867L127.455 0.00463867C128.682 0.00621267 129.858 0.500852 130.726 1.38016C131.594 2.25946 132.082 3.45172 132.085 4.69563V35.0114C132.086 37.5961 130.006 39.6974 127.456 39.6974Z" fill="#A6A6A6"/>
<path d="M131.21 35.0069C131.21 35.5065 131.113 36.0012 130.924 36.4627C130.735 36.9242 130.459 37.3434 130.11 37.6965C129.762 38.0496 129.348 38.3295 128.893 38.5203C128.437 38.7111 127.949 38.8091 127.457 38.8086H4.62998C3.63446 38.8096 2.67929 38.4097 1.97453 37.6968C1.26977 36.9839 0.873124 36.0163 0.871826 35.0069V4.69014C0.873123 3.68029 1.26961 2.71222 1.97423 1.99852C2.67885 1.28482 3.63401 0.883807 4.62998 0.883545H127.456C127.949 0.883545 128.437 0.982013 128.892 1.17332C129.348 1.36464 129.761 1.64504 130.11 1.99853C130.459 2.35202 130.735 2.77166 130.924 3.23349C131.112 3.69533 131.209 4.1903 131.209 4.69014L131.21 35.0069Z" fill="black"/>
<path d="M29.4932 19.6374C29.4648 16.4383 32.0766 14.8819 32.1961 14.8094C30.7169 12.6228 28.4242 12.324 27.6186 12.3002C25.693 12.0947 23.8252 13.4684 22.8443 13.4684C21.8438 13.4684 20.3333 12.32 18.7053 12.3538C16.6104 12.3865 14.6505 13.6163 13.5757 15.5261C11.3574 19.42 13.0118 25.1423 15.1371 28.2899C16.2002 29.8323 17.4425 31.5525 19.0685 31.492C20.6593 31.4264 21.2535 30.4646 23.1732 30.4646C25.0753 30.4646 25.6333 31.492 27.2916 31.4532C28.9989 31.4264 30.0737 29.9048 31.0997 28.3494C32.3282 26.5836 32.8216 24.8426 32.8412 24.7532C32.802 24.7393 29.5265 23.4708 29.4932 19.6374ZM26.3606 10.2296C27.2162 9.14471 27.8016 7.66872 27.6391 6.1709C26.4007 6.22648 24.8521 7.03942 23.9603 8.1005C23.1712 9.03552 22.4664 10.5681 22.6485 12.0093C24.0395 12.1145 25.4678 11.2976 26.3606 10.2296Z" fill="white"/>
<path d="M127.456 0H61.6665L87.4352 39.6928H127.456C128.683 39.6918 129.859 39.1976 130.727 38.3186C131.595 37.4396 132.083 36.2475 132.086 35.0038V4.691C132.084 3.447 131.595 2.25459 130.727 1.37523C129.859 0.495867 128.683 0.00131213 127.456 0V0Z" fill="url(#paint0_linear)"/>
<path d="M52.5348 31.2709H50.3116L49.0938 27.3909H44.8609L43.7008 31.2709H41.5364L45.7311 18.0615H48.3214L52.5348 31.2709ZM48.7267 25.763L47.6254 22.3138C47.5089 21.9614 47.2896 21.1316 46.9685 19.8253H46.9294C46.8001 20.3872 46.5936 21.217 46.3107 22.3138L45.228 25.763H48.7267ZM63.3012 26.3913C63.3012 28.0113 62.8675 29.2917 61.9992 30.2317C61.2219 31.0685 60.2557 31.4863 59.1035 31.4863C57.8592 31.4863 56.9645 31.0367 56.4212 30.1354V35.1331H54.3341V24.8767C54.3341 23.8592 54.3076 22.816 54.2567 21.746H56.0922L56.2087 23.2557H56.2479C56.9439 22.1182 58.0002 21.5495 59.4177 21.5495C60.5259 21.5495 61.451 21.9932 62.191 22.8815C62.9301 23.7719 63.3012 24.9412 63.3012 26.3913ZM61.1749 26.4688C61.1749 25.5417 60.9693 24.7774 60.5562 24.1749C60.1049 23.5486 59.499 23.2349 58.7393 23.2349C58.2244 23.2349 57.7564 23.4096 57.3384 23.754C56.9194 24.1014 56.6453 24.5551 56.5171 25.1169C56.4599 25.327 56.4273 25.5432 56.4202 25.7611V27.3502C56.4202 28.042 56.6297 28.6267 57.0487 29.1051C57.4677 29.5815 58.0119 29.8208 58.6815 29.8208C59.4676 29.8208 60.0795 29.5121 60.5171 28.8996C60.9556 28.2852 61.1749 27.4753 61.1749 26.4688ZM74.1057 26.3913C74.1057 28.0113 73.6721 29.2917 72.8037 30.2317C72.0255 31.0685 71.0603 31.4863 69.9071 31.4863C68.6628 31.4863 67.7681 31.0367 67.2248 30.1354V35.1331H65.1377V24.8767C65.1377 23.8592 65.1112 22.816 65.0603 21.746H66.8958L67.0123 23.2557H67.0515C67.7465 22.1182 68.8028 21.5495 70.2213 21.5495C71.3285 21.5495 72.2536 21.9932 72.9956 22.8815C73.7337 23.7719 74.1057 24.9412 74.1057 26.3913ZM71.9785 26.4688C71.9785 25.5417 71.7719 24.7774 71.3588 24.1749C70.9075 23.5486 70.3035 23.2349 69.5439 23.2349C69.0289 23.2349 68.561 23.4096 68.141 23.754C67.7221 24.1014 67.4489 24.5551 67.3207 25.1169C67.2571 25.3789 67.2228 25.5923 67.2228 25.7611V27.3502C67.2228 28.042 67.4333 28.6267 67.8503 29.1051C68.2693 29.5806 68.8136 29.8208 69.4851 29.8208C70.2722 29.8208 70.884 29.5121 71.3206 28.8996C71.7592 28.2852 71.9785 27.4753 71.9785 26.4688ZM86.1859 27.5656C86.1859 28.6902 85.7982 29.6044 85.0278 30.3101C84.18 31.0804 82.9965 31.4665 81.4791 31.4665C80.0773 31.4665 78.9534 31.1925 78.1057 30.6436L78.5883 28.8798C79.5036 29.4297 80.509 29.7036 81.6034 29.7036C82.3905 29.7036 83.0023 29.523 83.439 29.1647C83.8765 28.8053 84.0978 28.3249 84.0978 27.7254C84.0978 27.1884 83.9147 26.7388 83.5554 26.3725C83.1942 26.0072 82.5971 25.6668 81.7581 25.3541C79.4772 24.4915 78.3357 23.2299 78.3357 21.5703C78.3357 20.4864 78.7391 19.599 79.5437 18.9052C80.3484 18.2124 81.4155 17.866 82.7429 17.866C83.9284 17.866 84.9162 18.0754 85.7003 18.4933L85.1766 20.2184C84.4385 19.8134 83.6054 19.6109 82.6734 19.6109C81.9373 19.6109 81.3597 19.7946 80.9466 20.1598C80.599 20.4864 80.4228 20.8844 80.4228 21.3569C80.4228 21.878 80.6235 22.3108 81.0229 22.6503C81.3695 22.9629 82.0019 23.3034 82.9162 23.6687C84.0381 24.1272 84.8623 24.6613 85.39 25.2747C85.9215 25.8881 86.1859 26.6534 86.1859 27.5656ZM93.104 23.3342H90.8035V27.9587C90.8035 29.1349 91.2088 29.7215 92.0213 29.7215C92.3943 29.7215 92.7036 29.6897 92.9484 29.6232L93.0061 31.2302C92.595 31.3861 92.0536 31.4645 91.3831 31.4645C90.5588 31.4645 89.9146 31.2094 89.4496 30.6992C88.9866 30.189 88.7536 29.3344 88.7536 28.1314V23.3302H87.3831V21.742H88.7536V19.9981L90.8035 19.3707V21.742H93.104V23.3342ZM103.463 26.4301C103.463 27.8941 103.05 29.0962 102.226 30.0362C101.363 31.0039 100.216 31.4863 98.7858 31.4863C97.4055 31.4863 96.3081 31.0228 95.4897 30.0967C94.6713 29.1686 94.2621 27.9994 94.2621 26.5889C94.2621 25.1129 94.685 23.9039 95.5279 22.9639C96.3727 22.0229 97.5102 21.5525 98.9405 21.5525C100.319 21.5525 101.426 22.017 102.264 22.9441C103.065 23.8434 103.463 25.0047 103.463 26.4301ZM101.3 26.4787C101.3 25.6062 101.114 24.8578 100.741 24.2315C100.303 23.4751 99.6766 23.0969 98.8651 23.0969C98.0291 23.0969 97.3879 23.4751 96.9513 24.2315C96.5773 24.8578 96.3913 25.6191 96.3913 26.5184C96.3913 27.3919 96.5773 28.1423 96.9513 28.7666C97.4026 29.523 98.032 29.9012 98.8475 29.9012C99.6453 29.9012 100.271 29.515 100.723 28.7478C101.107 28.1066 101.3 27.3532 101.3 26.4787ZM110.25 23.6071C110.033 23.5674 109.813 23.5478 109.592 23.5486C108.858 23.5486 108.29 23.8285 107.891 24.3923C107.544 24.8886 107.37 25.5159 107.37 26.2732V31.2709H105.283V24.7456C105.285 23.7458 105.265 22.746 105.222 21.747H107.04L107.117 23.5694H107.174C107.396 22.9431 107.742 22.4379 108.218 22.0597C108.653 21.7292 109.183 21.5503 109.726 21.5495C109.919 21.5495 110.094 21.5634 110.248 21.5882L110.25 23.6071ZM119.584 26.0578C119.59 26.3795 119.564 26.701 119.508 27.0177H113.247C113.27 27.9587 113.574 28.6793 114.155 29.1756C114.683 29.6183 115.365 29.8406 116.203 29.8406C117.13 29.8406 117.976 29.6917 118.737 29.391L119.064 30.859C118.175 31.2521 117.125 31.4476 115.914 31.4476C114.458 31.4476 113.314 31.0129 112.482 30.1453C111.652 29.2768 111.236 28.1095 111.236 26.6474C111.236 25.2121 111.623 24.0161 112.397 23.0622C113.208 22.0438 114.303 21.5346 115.681 21.5346C117.035 21.5346 118.06 22.0438 118.756 23.0622C119.307 23.8692 119.584 24.8697 119.584 26.0578ZM117.594 25.5089C117.609 24.8806 117.472 24.3397 117.189 23.8821C116.828 23.2925 116.272 22.9987 115.527 22.9987C114.844 22.9987 114.288 23.2855 113.865 23.8612C113.518 24.3188 113.311 24.8687 113.248 25.507L117.594 25.5089Z" fill="white"/>
<path d="M44.2585 13.3913C43.678 13.3913 43.1758 13.3625 42.7578 13.3138V6.92748C43.3424 6.83591 43.9332 6.79078 44.5248 6.79249C46.9183 6.79249 48.0206 7.98658 48.0206 9.93306C48.0206 12.1783 46.7186 13.3913 44.2585 13.3913ZM44.609 7.61138C44.2859 7.61138 44.0109 7.63123 43.7828 7.67888V12.5337C43.9061 12.5535 44.143 12.5624 44.4759 12.5624C46.0441 12.5624 46.9369 11.6572 46.9369 9.96184C46.9369 8.45012 46.1293 7.61138 44.609 7.61138ZM51.4557 13.4399C50.1067 13.4399 49.2325 12.4185 49.2325 11.0319C49.2325 9.58664 50.1253 8.55633 51.5321 8.55633C52.8615 8.55633 53.7552 9.52907 53.7552 10.9554C53.7552 12.4185 52.834 13.4399 51.4557 13.4399ZM51.4949 9.31666C50.7538 9.31666 50.279 10.0194 50.279 11.0021C50.279 11.9659 50.7636 12.6686 51.4851 12.6686C52.2065 12.6686 52.6911 11.9173 52.6911 10.9822C52.6911 10.0293 52.2163 9.31666 51.4949 9.31666ZM61.4477 8.65261L60.0038 13.3337H59.063L58.4649 11.3008C58.3162 10.8036 58.1924 10.2991 58.0939 9.78913H58.0743C57.9989 10.2993 57.856 10.8105 57.7043 11.3008L57.068 13.3337H56.1174L54.7586 8.65261H55.813L56.3357 10.878C56.4591 11.408 56.5628 11.9083 56.649 12.3808H56.6686C56.7439 11.9867 56.8673 11.4944 57.0484 10.8879L57.7043 8.6536H58.5403L59.1678 10.8403C59.3195 11.3703 59.4429 11.8905 59.5388 12.3818H59.5662C59.6328 11.9004 59.7375 11.3892 59.8795 10.8403L60.4404 8.6536L61.4477 8.65261ZM66.7634 13.3337H65.7375V10.6457C65.7375 9.81792 65.4242 9.40301 64.8065 9.40301C64.1986 9.40301 63.7806 9.93306 63.7806 10.5495V13.3337H62.7546V9.99063C62.7546 9.57671 62.7448 9.13303 62.7164 8.65162H63.619L63.667 9.37423H63.6954C63.9715 8.87396 64.5314 8.55633 65.1589 8.55633C66.1281 8.55633 66.7644 9.30772 66.7644 10.5306L66.7634 13.3337ZM69.5925 13.3337H68.5656V6.50464H69.5925V13.3337ZM73.3331 13.4399C71.9851 13.4399 71.1099 12.4185 71.1099 11.0319C71.1099 9.58664 72.0027 8.55633 73.4084 8.55633C74.7388 8.55633 75.6316 9.52907 75.6316 10.9554C75.6326 12.4185 74.7104 13.4399 73.3331 13.4399ZM73.3712 9.31666C72.6302 9.31666 72.1554 10.0194 72.1554 11.0021C72.1554 11.9659 72.6409 12.6686 73.3605 12.6686C74.0829 12.6686 74.5665 11.9173 74.5665 10.9822C74.5675 10.0293 74.0937 9.31666 73.3712 9.31666ZM79.6766 13.3337L79.6022 12.7947H79.5748C79.2615 13.2285 78.8044 13.4399 78.2248 13.4399C77.3976 13.4399 76.8102 12.8523 76.8102 12.0622C76.8102 10.9068 77.798 10.3092 79.5082 10.3092V10.2229C79.5082 9.60649 79.1861 9.2978 78.5498 9.2978C78.0946 9.2978 77.6952 9.41393 77.3438 9.6452L77.1353 8.96131C77.5621 8.69132 78.0946 8.55633 78.7202 8.55633C79.9262 8.55633 80.5351 9.20151 80.5351 10.4929V12.217C80.5351 12.6895 80.5557 13.0558 80.6017 13.3347L79.6766 13.3337ZM79.5356 11.0021C78.3961 11.0021 77.8244 11.282 77.8244 11.946C77.8244 12.4374 78.1191 12.6776 78.5283 12.6776C79.0501 12.6776 79.5356 12.2736 79.5356 11.7247V11.0021ZM85.517 13.3337L85.469 12.5823H85.4406C85.1459 13.1501 84.6506 13.4399 83.9585 13.4399C82.8454 13.4399 82.0212 12.4473 82.0212 11.0507C82.0212 9.58664 82.8758 8.55534 84.0427 8.55534C84.6604 8.55534 85.098 8.76676 85.3447 9.19159H85.3652V6.50464H86.3921V12.0721C86.3921 12.5247 86.4029 12.9486 86.4303 13.3337H85.517ZM85.3652 10.5792C85.3652 9.92412 84.9374 9.36529 84.2845 9.36529C83.5238 9.36529 83.0588 10.0492 83.0588 11.012C83.0588 11.956 83.5415 12.6021 84.2639 12.6021C84.909 12.6021 85.3652 12.0334 85.3652 11.3594V10.5792ZM92.9031 13.4399C91.5551 13.4399 90.6809 12.4185 90.6809 11.0319C90.6809 9.58664 91.5737 8.55633 92.9794 8.55633C94.3098 8.55633 95.2026 9.52907 95.2026 10.9554C95.2036 12.4185 94.2824 13.4399 92.9031 13.4399ZM92.9412 9.31666C92.2012 9.31666 91.7264 10.0194 91.7264 11.0021C91.7264 11.9659 92.2109 12.6686 92.9314 12.6686C93.6539 12.6686 94.1375 11.9173 94.1375 10.9822C94.1395 10.0293 93.6647 9.31666 92.9412 9.31666ZM100.72 13.3337H99.693V10.6457C99.693 9.81792 99.3797 9.40301 98.762 9.40301C98.1541 9.40301 97.7371 9.93306 97.7371 10.5495V13.3337H96.7102V9.99063C96.7102 9.57671 96.7004 9.13303 96.672 8.65162H97.5746L97.6225 9.37423H97.6509C97.926 8.87396 98.4869 8.55534 99.1135 8.55534C100.083 8.55534 100.72 9.30673 100.72 10.5296V13.3337ZM107.622 9.43279H106.494V11.7058C106.494 12.2845 106.691 12.5734 107.091 12.5734C107.272 12.5734 107.424 12.5535 107.546 12.5247L107.574 13.3148C107.376 13.3922 107.109 13.431 106.779 13.431C105.97 13.431 105.486 12.9783 105.486 11.7932V9.43279H104.813V8.65261H105.486V7.79501L106.494 7.48631V8.65162H107.622V9.43279ZM113.054 13.3337H112.029V10.6656C112.029 9.82784 111.716 9.404 111.098 9.404C110.566 9.404 110.071 9.77027 110.071 10.5117V13.3337H109.046V6.50464H110.071V9.31666H110.091C110.414 8.80646 110.882 8.55534 111.479 8.55534C112.456 8.55534 113.054 9.32559 113.054 10.5495V13.3337ZM118.618 11.2433H115.539C115.559 12.1297 116.137 12.6299 116.994 12.6299C117.449 12.6299 117.868 12.5525 118.238 12.4086L118.398 13.1312C117.961 13.3238 117.447 13.42 116.849 13.42C115.405 13.42 114.55 12.4949 114.55 11.0606C114.55 9.62535 115.426 8.5464 116.733 8.5464C117.913 8.5464 118.653 9.43279 118.653 10.7718C118.66 10.9298 118.648 11.0881 118.618 11.2433ZM117.677 10.5018C117.677 9.7792 117.318 9.26901 116.662 9.26901C116.073 9.26901 115.607 9.78913 115.54 10.5018H117.677Z" fill="white"/>
<defs>
<linearGradient id="paint0_linear" x1="96.875" y1="39.7982" x2="96.875" y2="-103.353" gradientUnits="userSpaceOnUse">
<stop stop-color="#1A1A1A" stop-opacity="0.1"/>
<stop offset="0.123" stop-color="#212121" stop-opacity="0.151"/>
<stop offset="0.308" stop-color="#353535" stop-opacity="0.227"/>
<stop offset="0.532" stop-color="#575757" stop-opacity="0.318"/>
<stop offset="0.783" stop-color="#858585" stop-opacity="0.421"/>
<stop offset="1" stop-color="#B3B3B3" stop-opacity="0.51"/>
</linearGradient>
</defs>
</svg>
