<svg width="131" height="40" viewBox="0 0 131 40" fill="none" xmlns="http://www.w3.org/2000/svg">
<path d="M126.142 39.7661H4.85202C2.13258 39.7661 0 37.5979 0 34.8451V5.31918C0 2.5664 2.13258 0.398193 4.85202 0.398193H126.142C128.861 0.398193 130.994 2.56109 130.994 5.31918V34.8451C130.994 37.5979 128.861 39.7661 126.142 39.7661Z" fill="black"/>
<path d="M126.142 1.1847C128.374 1.1847 130.218 3.05532 130.218 5.31918V34.8451C130.218 37.109 128.374 38.9796 126.142 38.9796H4.85202C2.61988 38.9796 0.775484 37.109 0.775484 34.8451V5.31918C0.775484 3.05532 2.61988 1.1847 4.85202 1.1847H126.142ZM126.142 0.398193H4.85202C2.13258 0.398193 0 2.66206 0 5.31918V34.8451C0 37.6032 2.13258 39.7661 4.85202 39.7661H126.142C128.861 39.7661 130.994 37.6032 130.994 34.8451V5.31918C130.994 2.66206 128.861 0.398193 126.142 0.398193Z" fill="#A6A6A6"/>
<path d="M45.9942 10.4357C45.9942 11.2222 45.8004 11.9131 45.3131 12.402C44.7314 12.9919 44.0503 13.2895 43.1805 13.2895C42.3054 13.2895 41.6295 12.9919 41.0479 12.402C40.4663 11.8121 40.1729 11.1213 40.1729 10.2391C40.1729 9.35693 40.4663 8.66608 41.0479 8.0762C41.6295 7.48632 42.3107 7.18872 43.1805 7.18872C43.5682 7.18872 43.956 7.28969 44.3437 7.48632C44.7314 7.68295 45.0249 7.87957 45.2187 8.17717L44.7314 8.67139C44.3437 8.17717 43.8564 7.98054 43.1805 7.98054C42.5989 7.98054 42.0172 8.17717 41.6295 8.67139C41.1422 9.06465 40.9483 9.65453 40.9483 10.3454C40.9483 11.0362 41.1422 11.6261 41.6295 12.0194C42.1168 12.4126 42.5989 12.7102 43.1805 12.7102C43.8616 12.7102 44.3437 12.5136 44.831 12.0194C45.1244 11.7218 45.3183 11.3285 45.3183 10.8396H43.1857V10.0531H45.9995L45.9942 10.4357ZM50.4585 7.97523H47.8386V9.84584H50.2646V10.5367H47.8386V12.4073H50.4585V13.1938H47.0631V7.28969H50.4585V7.97523ZM53.66 13.1938H52.8845V7.98054H51.234V7.28969H55.3105V7.98054H53.66V13.1938ZM58.1243 13.1938V7.28969H58.8997V13.1938H58.1243ZM62.1956 13.1938H61.4201V7.98054H59.7695V7.28969H63.7465V7.98054H62.096V13.1938H62.1956ZM71.4175 12.4073C70.8359 12.9972 70.1548 13.2948 69.285 13.2948C68.4099 13.2948 67.734 12.9972 67.1524 12.4073C66.5708 11.8174 66.2773 11.1266 66.2773 10.2444C66.2773 9.36224 66.5708 8.67139 67.1524 8.08151C67.734 7.49163 68.4151 7.19403 69.285 7.19403C70.1548 7.19403 70.8359 7.49163 71.4175 8.08151C71.9991 8.67139 72.2926 9.36224 72.2926 10.2444C72.2926 11.1266 71.9991 11.8121 71.4175 12.4073ZM67.7287 11.9131C68.1165 12.3063 68.6981 12.6039 69.2797 12.6039C69.8613 12.6039 70.4429 12.4073 70.8307 11.9131C71.2184 11.5198 71.5118 10.9299 71.5118 10.2391C71.5118 9.54824 71.318 8.95836 70.8307 8.56511C70.4429 8.17186 69.8613 7.87426 69.2797 7.87426C68.6981 7.87426 68.1165 8.07088 67.7287 8.56511C67.341 8.95836 67.0476 9.54824 67.0476 10.2391C67.0476 10.9299 67.2414 11.5198 67.7287 11.9131ZM73.3562 13.1938V7.28969H74.2313L77.045 11.9131V7.28969H77.8205V13.1938H77.045L74.0374 8.3738V13.1938H73.3562Z" fill="white" stroke="white" stroke-width="0.2" stroke-miterlimit="10"/>
<path d="M66.079 21.8509C63.7526 21.8509 61.9082 23.6206 61.9082 26.0811C61.9082 28.4406 63.7526 30.3112 66.079 30.3112C68.4055 30.3112 70.2499 28.5416 70.2499 26.0811C70.2499 23.5249 68.4107 21.8509 66.079 21.8509ZM66.079 28.5469C64.8163 28.5469 63.7526 27.4628 63.7526 25.9907C63.7526 24.5134 64.8215 23.4346 66.079 23.4346C67.3366 23.4346 68.4055 24.4177 68.4055 25.9907C68.4107 27.4628 67.3418 28.5469 66.079 28.5469ZM57.0562 21.8509C54.7297 21.8509 52.8853 23.6206 52.8853 26.0811C52.8853 28.4406 54.7297 30.3112 57.0562 30.3112C59.3826 30.3112 61.227 28.5416 61.227 26.0811C61.227 23.5249 59.3826 21.8509 57.0562 21.8509ZM57.0562 28.5469C55.7934 28.5469 54.7297 27.4628 54.7297 25.9907C54.7297 24.5134 55.7986 23.4346 57.0562 23.4346C58.319 23.4346 59.3826 24.4177 59.3826 25.9907C59.3826 27.4628 58.319 28.5469 57.0562 28.5469ZM46.2832 23.1317V24.9013H50.4593C50.3598 25.8844 49.972 26.671 49.49 27.1652C48.9084 27.7551 47.939 28.4459 46.2885 28.4459C43.6686 28.4459 41.7299 26.3787 41.7299 23.7215C41.7299 21.0644 43.7682 18.9972 46.2885 18.9972C47.6456 18.9972 48.7145 19.5871 49.49 20.2779L50.7528 18.9972C49.6838 18.014 48.3267 17.2275 46.388 17.2275C42.8931 17.2275 39.8855 20.1823 39.8855 23.7215C39.8855 27.2608 42.8931 30.2156 46.388 30.2156C48.3267 30.2156 49.6891 29.6257 50.8523 28.3449C52.0155 27.1652 52.4033 25.4912 52.4033 24.2105C52.4033 23.8172 52.4033 23.4239 52.3037 23.1264L46.2832 23.1317ZM90.3391 24.5081C89.9514 23.5249 88.982 21.8509 86.8442 21.8509C84.7116 21.8509 82.9616 23.5249 82.9616 26.0811C82.9616 28.4406 84.7064 30.3112 87.0381 30.3112C88.8825 30.3112 90.0457 29.1314 90.4334 28.4406L89.0763 27.4575C88.5891 28.1483 88.0074 28.6372 87.0381 28.6372C86.0687 28.6372 85.4871 28.244 84.9998 27.3565L90.533 24.997L90.3391 24.5081ZM84.7116 25.8898C84.7116 24.3167 85.9744 23.4293 86.8442 23.4293C87.5254 23.4293 88.2013 23.8225 88.3952 24.3167L84.7116 25.8898ZM80.1478 29.9233H81.9922V17.6208H80.1478V29.9233ZM77.2397 22.7384C76.7524 22.2442 75.977 21.7553 75.0076 21.7553C72.9693 21.7553 71.0306 23.6259 71.0306 25.9854C71.0306 28.3449 72.875 30.1199 75.0076 30.1199C75.977 30.1199 76.7524 29.6257 77.1402 29.1368H77.2397V29.7266C77.2397 31.2997 76.3647 32.1871 75.0076 32.1871C73.9387 32.1871 73.1632 31.4006 72.9693 30.7098L71.4184 31.4006C71.9057 32.4847 73.0689 33.8611 75.1072 33.8611C77.2397 33.8611 78.9898 32.5804 78.9898 29.53V22.0476H77.245L77.2397 22.7384ZM75.1019 28.5469C73.8391 28.5469 72.7755 27.4628 72.7755 25.9907C72.7755 24.5134 73.8444 23.4346 75.1019 23.4346C76.3595 23.4346 77.334 24.5187 77.334 25.9907C77.334 27.4628 76.3647 28.5469 75.1019 28.5469ZM98.7804 17.6208H94.4157V29.9233H96.2601V25.2999H98.7804C100.819 25.2999 102.757 23.8225 102.757 21.463C102.757 19.1035 100.819 17.6208 98.7804 17.6208ZM98.8747 23.5249H96.2548V19.2948H98.8747C100.232 19.2948 101.007 20.4745 101.007 21.362C100.913 22.4408 100.137 23.5249 98.8747 23.5249ZM110.035 21.7553C108.678 21.7553 107.316 22.3452 106.834 23.6259L108.484 24.3167C108.872 23.6259 109.454 23.4293 110.135 23.4293C111.104 23.4293 111.979 24.0191 112.074 25.0023V25.1033C111.78 24.9066 111.005 24.609 110.229 24.609C108.484 24.609 106.734 25.5922 106.734 27.3671C106.734 29.0411 108.191 30.1252 109.742 30.1252C111.005 30.1252 111.586 29.5353 112.068 28.9454H112.168V29.9286H113.913V25.2042C113.724 23.036 112.074 21.7553 110.035 21.7553ZM109.842 28.5469C109.26 28.5469 108.385 28.2493 108.385 27.4628C108.385 26.4796 109.454 26.182 110.324 26.182C111.099 26.182 111.487 26.3787 111.974 26.5753C111.78 27.7551 110.811 28.5469 109.842 28.5469ZM120.028 22.0476L117.989 27.3618H117.89L115.757 22.0476H113.818L117.02 29.5247L115.176 33.6592H117.02L121.966 22.0476H120.028ZM103.727 29.9233H105.571V17.6208H103.727V29.9233Z" fill="white"/>
<path d="M10.0911 7.77881C9.79769 8.07641 9.70337 8.56532 9.70337 9.1552V30.9064C9.70337 31.4963 9.89724 31.9905 10.1907 32.2828L10.2902 32.3838L22.3207 20.1823V19.9856L10.0911 7.77881Z" fill="url(#paint0_linear)"/>
<path d="M26.1982 24.3114L22.2212 20.2779V19.9803L26.1982 15.9468L26.2977 16.0477L31.0502 18.8058C32.4073 19.5923 32.4073 20.8731 31.0502 21.6596L26.1982 24.3114Z" fill="url(#paint1_linear)"/>
<path d="M26.2976 24.2158L22.2211 20.0813L10.0911 32.3838C10.5784 32.878 11.2543 32.878 12.1293 32.4848L26.2976 24.2158Z" fill="url(#paint2_linear)"/>
<path d="M26.2976 15.9469L12.1293 7.77886C11.2543 7.28463 10.5784 7.3856 10.0911 7.87983L22.2211 20.0813L26.2976 15.9469Z" fill="url(#paint3_linear)"/>
<path opacity="0.2" d="M26.1981 24.115L12.1293 32.1873C11.3538 32.6816 10.6727 32.5806 10.1906 32.1873L10.0911 32.2883L10.1906 32.3893C10.6779 32.7825 11.3538 32.8835 12.1293 32.3893L26.1981 24.115Z" fill="black"/>
<path opacity="0.12" d="M10.0911 32.1871C9.79769 31.8895 9.70337 31.4006 9.70337 30.8108V30.9117C9.70337 31.5016 9.89724 31.9958 10.1907 32.2881V32.1871H10.0911ZM31.0501 21.362L26.1981 24.1148L26.2977 24.2158L31.0501 21.4577C31.7313 21.0644 32.0195 20.5702 32.0195 20.0813C32.0195 20.5755 31.6317 20.9688 31.0501 21.362Z" fill="black"/>
<path opacity="0.25" d="M12.1296 7.87996L31.0504 18.806C31.632 19.1993 32.0197 19.5926 32.0197 20.0868C32.0197 19.5926 31.7263 19.1036 31.0504 18.7104L12.1296 7.77899C10.7725 6.99248 9.70361 7.58236 9.70361 9.15538V9.25635C9.70361 7.77899 10.7725 7.09345 12.1296 7.87996Z" fill="white"/>
<defs>
<linearGradient id="paint0_linear" x1="21.1472" y1="8.96544" x2="4.6323" y2="25.2477" gradientUnits="userSpaceOnUse">
<stop stop-color="#00A0FF"/>
<stop offset="0.007" stop-color="#00A1FF"/>
<stop offset="0.26" stop-color="#00BEFF"/>
<stop offset="0.512" stop-color="#00D2FF"/>
<stop offset="0.76" stop-color="#00DFFF"/>
<stop offset="1" stop-color="#00E3FF"/>
</linearGradient>
<linearGradient id="paint1_linear" x1="32.8286" y1="20.1298" x2="9.34966" y2="20.1298" gradientUnits="userSpaceOnUse">
<stop stop-color="#FFE000"/>
<stop offset="0.409" stop-color="#FFBD00"/>
<stop offset="0.775" stop-color="#FFA500"/>
<stop offset="1" stop-color="#FF9C00"/>
</linearGradient>
<linearGradient id="paint2_linear" x1="24.0776" y1="22.3289" x2="1.68328" y2="44.4093" gradientUnits="userSpaceOnUse">
<stop stop-color="#FF3A44"/>
<stop offset="1" stop-color="#C31162"/>
</linearGradient>
<linearGradient id="paint3_linear" x1="7.04456" y1="0.606491" x2="17.0452" y2="10.4669" gradientUnits="userSpaceOnUse">
<stop stop-color="#32A071"/>
<stop offset="0.069" stop-color="#2DA771"/>
<stop offset="0.476" stop-color="#15CF74"/>
<stop offset="0.801" stop-color="#06E775"/>
<stop offset="1" stop-color="#00F076"/>
</linearGradient>
</defs>
</svg>
